<svg id="canvas" xmlns="http://www.w3.org/2000/svg" version="1.1" width="1900" height="1060" viewBox="0 0 1900 1060" fillrule="non-zero">
				<polygon id="p1" class="triangle" points="1425,0 1662.5,132.5 1900,0" fill="rgb(18, 97, 98)"/>
				<polygon id="p2" class="triangle" points="1425,265 1900,265 1900,0" fill="rgb(18, 100, 99)"/>
			<polygon id="p3" class="triangle" fill="rgb(15, 92, 97)" points="0,1026.5 29.5,1043 0,1060"/><polygon id="p4" class="triangle" fill="rgb(16, 92, 103)" points="118.5,66 118.5,0 0,0"/><polygon id="p5" class="triangle" fill="rgb(18, 97, 97)" points="0,265 237.5,132.5 0,0"/><polygon id="p6" class="triangle" fill="rgb(19, 101, 99)" points="712.5,662.5 712.5,530 950,530"/><polygon id="p7" class="triangle" fill="rgb(19, 97, 103)" points="950,397.5 831,463.5 950,530"/><polygon id="p8" class="triangle" fill="rgb(15, 95, 100)" points="831,66 950,66 950,0"/><polygon id="p9" class="triangle" fill="rgb(21, 98, 103)" points="475,530 712.5,397.5 950,530"/><polygon id="p10" class="triangle" fill="rgb(21, 94, 104)" points="237.5,397.5 237.5,530 0,530"/><polygon id="p11" class="triangle" fill="rgb(18, 99, 102)" points="475,0 712.5,132.5 950,0"/><polygon id="p12" class="triangle" fill="rgb(18, 98, 104)" points="475,0 712.5,132.5 475,265"/><polygon id="p13" class="triangle" fill="rgb(21, 96, 101)" points="475,265 0,265 0,530"/><polygon id="p14" class="triangle" fill="rgb(18, 97, 98)" points="475,0 237.5,132.5 475,265"/><polygon id="p15" class="triangle" fill="rgb(21, 97, 103)" points="237.5,132.5 237.5,0 475,0"/><polygon id="p16" class="triangle" fill="rgb(14, 97, 98)" points="237.5,0 118.5,66 237.5,132.5"/><polygon id="p17" class="triangle" fill="rgb(12, 92, 102)" points="118.5,66 118.5,0 237.5,0"/><polygon id="p18" class="triangle" fill="rgb(14, 101, 105)" points="0,265 237.5,132.5 475,265"/><polygon id="p19" class="triangle" fill="rgb(16, 94, 101)" points="475,795 0,795 0,530"/><polygon id="p20" class="triangle" fill="rgb(17, 99, 103)" points="237.5,927.5 237.5,795 475,795"/><polygon id="p21" class="triangle" fill="rgb(18, 92, 101)" points="0,927.5 118.5,861 0,795"/><polygon id="p22" class="triangle" fill="rgb(21, 95, 99)" points="0,927.5 118.5,993.5 237.5,927.5"/><polygon id="p23" class="triangle" fill="rgb(14, 94, 102)" points="118.5,993.5 0,993.5 0,927.5"/><polygon id="p24" class="triangle" fill="rgb(15, 99, 101)" points="0,993.5 59,1026.5 118.5,993.5"/><polygon id="p25" class="triangle" fill="rgb(14, 93, 102)" points="59,1026.5 0,1026.5 0,993.5"/><polygon id="p26" class="triangle" fill="rgb(20, 93, 96)" points="0,1026.5 29.5,1043 59,1026.5"/><polygon id="p27" class="triangle" fill="rgb(12, 96, 96)" points="237.5,1060 118.5,993.5 0,1060"/><polygon id="p28" class="triangle" fill="rgb(20, 99, 100)" points="1781,993.5 1781,1060 1900,1060"/><polygon id="p29" class="triangle" fill="rgb(17, 95, 99)" points="475,530 237.5,662.5 0,530"/><polygon id="p30" class="triangle" fill="rgb(13, 99, 96)" points="950,795 1187.5,662.5 950,530"/><polygon id="p31" class="triangle" fill="rgb(13, 93, 104)" points="950,927.5 1068.5,993.5 950,1060"/><polygon id="p32" class="triangle" fill="rgb(12, 99, 103)" points="1425,795 1425,1060 950,1060"/><polygon id="p33" class="triangle" fill="rgb(20, 94, 103)" points="1543.5,861 1425,861 1425,795"/><polygon id="p34" class="triangle" fill="rgb(15, 97, 96)" points="1662.5,927.5 1662.5,1060 1425,1060"/><polygon id="p35" class="triangle" fill="rgb(16, 98, 100)" points="1662.5,1060 1781,993.5 1662.5,927.5"/><polygon id="p36" class="triangle" fill="rgb(21, 93, 102)" points="1781,993.5 1781,1060 1662.5,1060"/><polygon id="p37" class="triangle" fill="rgb(17, 98, 99)" points="1425,795 1900,795 1900,1060"/><polygon id="p38" class="triangle" fill="rgb(21, 92, 104)" points="1543.5,993.5 1425,993.5 1425,1060"/><polygon id="p39" class="triangle" fill="rgb(17, 94, 100)" points="1425,927.5 1543.5,861 1662.5,927.5"/><polygon id="p40" class="triangle" fill="rgb(17, 97, 98)" points="1543.5,861 1425,861 1425,927.5"/><polygon id="p41" class="triangle" fill="rgb(18, 92, 99)" points="1425,927.5 1543.5,993.5 1662.5,927.5"/><polygon id="p42" class="triangle" fill="rgb(17, 94, 97)" points="1543.5,993.5 1425,993.5 1425,927.5"/><polygon id="p43" class="triangle" fill="rgb(16, 100, 100)" points="950,795 1187.5,927.5 1425,795"/><polygon id="p44" class="triangle" fill="rgb(14, 100, 103)" points="1187.5,927.5 950,927.5 950,795"/><polygon id="p45" class="triangle" fill="rgb(20, 95, 101)" points="950,927.5 1068.5,993.5 1187.5,927.5"/><polygon id="p46" class="triangle" fill="rgb(16, 99, 99)" points="1068.5,463.5 1068.5,530 950,530"/><polygon id="p47" class="triangle" fill="rgb(13, 99, 98)" points="1068.5,530 1009,563 950,530"/><polygon id="p48" class="triangle" fill="rgb(20, 93, 99)" points="1009,496.5 950,496.5 950,530"/><polygon id="p49" class="triangle" fill="rgb(15, 99, 102)" points="950,265 1187.5,132.5 950,0"/><polygon id="p50" class="triangle" fill="rgb(16, 95, 105)" points="1425,0 1187.5,132.5 950,0"/><polygon id="p51" class="triangle" fill="rgb(16, 100, 97)" points="950,265 1187.5,397.5 1425,265"/><polygon id="p52" class="triangle" fill="rgb(15, 97, 104)" points="1425,132.5 1306,198.5 1425,265"/><polygon id="p53" class="triangle" fill="rgb(19, 93, 105)" points="1484,231.5 1425,231.5 1425,265"/><polygon id="p54" class="triangle" fill="rgb(17, 100, 105)" points="1187.5,132.5 1425,132.5 1425,0"/><polygon id="p55" class="triangle" fill="rgb(14, 98, 97)" points="1425,132.5 1306,198.5 1187.5,132.5"/><polygon id="p56" class="triangle" fill="rgb(12, 101, 104)" points="1662.5,132.5 1425,132.5 1425,0"/><polygon id="p57" class="triangle" fill="rgb(17, 100, 97)" points="1425,132.5 1543.5,198.5 1662.5,132.5"/><polygon id="p58" class="triangle" fill="rgb(16, 96, 104)" points="1543.5,198.5 1425,198.5 1425,132.5"/><polygon id="p59" class="triangle" fill="rgb(13, 94, 96)" points="1425,198.5 1484,231.5 1543.5,198.5"/><polygon id="p60" class="triangle" fill="rgb(16, 101, 100)" points="1484,231.5 1425,231.5 1425,198.5"/><polygon id="p61" class="triangle" fill="rgb(15, 95, 97)" points="1900,265 1662.5,397.5 1900,530"/><polygon id="p62" class="triangle" fill="rgb(13, 92, 105)" points="1484,298 1484,265 1425,265"/><polygon id="p63" class="triangle" fill="rgb(13, 92, 103)" points="1840.5,265 1870,281.5 1900,265"/><polygon id="p64" class="triangle" fill="rgb(16, 100, 100)" points="1662.5,265 1543.5,331 1662.5,397.5"/><polygon id="p65" class="triangle" fill="rgb(15, 95, 102)" points="1543.5,331 1543.5,265 1662.5,265"/><polygon id="p66" class="triangle" fill="rgb(12, 96, 100)" points="1543.5,265 1484,298 1543.5,331"/><polygon id="p67" class="triangle" fill="rgb(19, 100, 99)" points="1484,298 1484,265 1543.5,265"/><polygon id="p68" class="triangle" fill="rgb(18, 94, 96)" points="1662,331 1721.5,364 1662.5,397.5"/><polygon id="p69" class="triangle" fill="rgb(15, 101, 99)" points="1781,331 1662,331 1662.5,265"/><polygon id="p70" class="triangle" fill="rgb(17, 99, 104)" points="1662,331 1721.5,364 1781,331"/><polygon id="p71" class="triangle" fill="rgb(13, 96, 105)" points="1781,265 1721.5,298 1662.5,265"/><polygon id="p72" class="triangle" fill="rgb(17, 97, 100)" points="1781,265 1721.5,298 1781,331"/><polygon id="p73" class="triangle" fill="rgb(17, 96, 96)" points="1781,265 1840.5,298 1781,331"/><polygon id="p74" class="triangle" fill="rgb(21, 100, 101)" points="1840.5,298 1840.5,265 1781,265"/><polygon id="p75" class="triangle" fill="rgb(19, 95, 103)" points="1840.5,265 1870,281.5 1840.5,298"/><polygon id="p76" class="triangle" fill="rgb(20, 98, 102)" points="950,662.5 831,596 950,530"/><polygon id="p77" class="triangle" fill="rgb(17, 97, 96)" points="950,795 712.5,927.5 950,1060"/><polygon id="p78" class="triangle" fill="rgb(13, 98, 100)" points="950,795 712.5,662.5 475,795"/><polygon id="p79" class="triangle" fill="rgb(21, 98, 104)" points="712.5,662.5 950,662.5 950,795"/><polygon id="p80" class="triangle" fill="rgb(14, 92, 102)" points="950,662.5 831,596 712.5,662.5"/><polygon id="p81" class="triangle" fill="rgb(18, 92, 96)" points="1781,463.5 1781,530 1900,530"/><polygon id="p82" class="triangle" fill="rgb(12, 96, 99)" points="1187.5,397.5 1425,397.5 1425,265"/><polygon id="p83" class="triangle" fill="rgb(17, 98, 98)" points="1187.5,397.5 1187.5,530 1425,530"/><polygon id="p84" class="triangle" fill="rgb(19, 99, 103)" points="1187.5,530 1068.5,463.5 1187.5,397.5"/><polygon id="p85" class="triangle" fill="rgb(14, 97, 105)" points="1068.5,463.5 1068.5,530 1187.5,530"/><polygon id="p86" class="triangle" fill="rgb(17, 96, 101)" points="1425,530 1662.5,397.5 1425,265"/><polygon id="p87" class="triangle" fill="rgb(15, 92, 97)" points="1662.5,397.5 1662.5,530 1425,530"/><polygon id="p88" class="triangle" fill="rgb(15, 93, 100)" points="1662.5,530 1781,463.5 1662.5,397.5"/><polygon id="p89" class="triangle" fill="rgb(18, 94, 102)" points="1781,463.5 1781,530 1662.5,530"/><polygon id="p90" class="triangle" fill="rgb(19, 98, 100)" points="1425,530 1662.5,662.5 1900,530"/><polygon id="p91" class="triangle" fill="rgb(14, 96, 99)" points="1425,530 1187.5,662.5 1425,795"/><polygon id="p92" class="triangle" fill="rgb(19, 100, 98)" points="1187.5,662.5 1187.5,530 1425,530"/><polygon id="p93" class="triangle" fill="rgb(17, 100, 104)" points="1187.5,530 1068.5,596 1187.5,662.5"/><polygon id="p94" class="triangle" fill="rgb(15, 93, 105)" points="1068.5,596 1068.5,530 1187.5,530"/><polygon id="p95" class="triangle" fill="rgb(15, 100, 97)" points="1068.5,530 1009,563 1068.5,596"/><polygon id="p96" class="triangle" fill="rgb(20, 98, 104)" points="950,795 1187.5,662.5 1425,795"/><polygon id="p97" class="triangle" fill="rgb(12, 99, 99)" points="475,1060 712.5,927.5 950,1060"/><polygon id="p98" class="triangle" fill="rgb(12, 92, 100)" points="356,861 475,861 475,795"/><polygon id="p99" class="triangle" fill="rgb(21, 96, 103)" points="0,927.5 118.5,861 237.5,927.5"/><polygon id="p100" class="triangle" fill="rgb(17, 92, 97)" points="237.5,927.5 237.5,795 0,795"/><polygon id="p101" class="triangle" fill="rgb(14, 101, 98)" points="475,927.5 356,993.5 475,1060"/><polygon id="p102" class="triangle" fill="rgb(21, 94, 101)" points="356,993.5 356,1060 475,1060"/><polygon id="p103" class="triangle" fill="rgb(21, 95, 104)" points="296.5,960 237,960 237.5,927.5"/><polygon id="p104" class="triangle" fill="rgb(12, 92, 97)" points="356,927 296.5,960 237.5,927.5"/><polygon id="p105" class="triangle" fill="rgb(13, 97, 101)" points="356,993.5 356,927 475,927.5"/><polygon id="p106" class="triangle" fill="rgb(18, 98, 100)" points="356,927 296.5,960 356,993.5"/><polygon id="p107" class="triangle" fill="rgb(15, 97, 97)" points="356,861 356,927 237.5,927.5"/><polygon id="p108" class="triangle" fill="rgb(14, 97, 96)" points="356,861 356,927 475,927.5"/><polygon id="p109" class="triangle" fill="rgb(21, 98, 98)" points="118.5,993.5 237,993.5 237.5,927.5"/><polygon id="p110" class="triangle" fill="rgb(15, 93, 97)" points="118.5,993.5 237,993.5 237.5,1060"/><polygon id="p111" class="triangle" fill="rgb(17, 94, 100)" points="356,993.5 237,993.5 237.5,1060"/><polygon id="p112" class="triangle" fill="rgb(18, 95, 103)" points="237,993.5 296.5,960 356,993.5"/><polygon id="p113" class="triangle" fill="rgb(20, 101, 100)" points="296.5,960 237,960 237,993.5"/><polygon id="p114" class="triangle" fill="rgb(16, 92, 99)" points="356,1060 296.5,1026.5 237.5,1060"/><polygon id="p115" class="triangle" fill="rgb(15, 97, 105)" points="356,1060 296.5,1026.5 356,993.5"/><polygon id="p116" class="triangle" fill="rgb(21, 96, 98)" points="356,861 475,861 475,927.5"/><polygon id="p117" class="triangle" fill="rgb(17, 99, 105)" points="475,1060 712.5,927.5 475,795"/><polygon id="p118" class="triangle" fill="rgb(15, 96, 98)" points="475,530 712.5,397.5 475,265"/><polygon id="p119" class="triangle" fill="rgb(18, 98, 103)" points="712.5,662.5 475,662.5 475,795"/><polygon id="p120" class="triangle" fill="rgb(12, 92, 101)" points="534,563 475,563 475,530"/><polygon id="p121" class="triangle" fill="rgb(17, 92, 102)" points="534,563 534,530 475,530"/><polygon id="p122" class="triangle" fill="rgb(20, 95, 98)" points="712.5,530 593.5,596 712.5,662.5"/><polygon id="p123" class="triangle" fill="rgb(13, 95, 103)" points="475,662.5 593.5,596 712.5,662.5"/><polygon id="p124" class="triangle" fill="rgb(16, 94, 96)" points="593.5,596 475,596 475,662.5"/><polygon id="p125" class="triangle" fill="rgb(21, 95, 103)" points="593.5,596 593.5,530 712.5,530"/><polygon id="p126" class="triangle" fill="rgb(12, 94, 103)" points="593.5,530 534,563 593.5,596"/><polygon id="p127" class="triangle" fill="rgb(21, 96, 103)" points="534,563 534,530 593.5,530"/><polygon id="p128" class="triangle" fill="rgb(20, 94, 99)" points="475,530 237.5,662.5 475,795"/><polygon id="p129" class="triangle" fill="rgb(16, 95, 99)" points="475,596 534,563 593.5,596"/><polygon id="p130" class="triangle" fill="rgb(21, 100, 102)" points="534,563 475,563 475,596"/><polygon id="p131" class="triangle" fill="rgb(12, 98, 103)" points="237.5,397.5 475,397.5 475,265"/><polygon id="p132" class="triangle" fill="rgb(18, 100, 98)" points="237.5,397.5 475,397.5 475,530"/><polygon id="p133" class="triangle" fill="rgb(14, 99, 101)" points="237.5,397.5 237.5,530 475,530"/><polygon id="p134" class="triangle" fill="rgb(18, 94, 103)" points="950,331 1009,298 950,265"/><polygon id="p135" class="triangle" fill="rgb(12, 101, 104)" points="950,265 712.5,397.5 475,265"/><polygon id="p136" class="triangle" fill="rgb(14, 101, 96)" points="950,397.5 831,331 950,265"/><polygon id="p137" class="triangle" fill="rgb(12, 95, 100)" points="950,397.5 1068.5,463.5 1187.5,397.5"/><polygon id="p138" class="triangle" fill="rgb(20, 92, 104)" points="1068.5,463.5 950,463.5 950,397.5"/><polygon id="p139" class="triangle" fill="rgb(13, 96, 98)" points="950,463.5 1009,496.5 1068.5,463.5"/><polygon id="p140" class="triangle" fill="rgb(20, 98, 101)" points="1009,496.5 950,496.5 950,463.5"/><polygon id="p141" class="triangle" fill="rgb(15, 97, 96)" points="950,397.5 831,463.5 712.5,397.5"/><polygon id="p142" class="triangle" fill="rgb(15, 93, 105)" points="1425,496.5 1395,513 1425,530"/><polygon id="p143" class="triangle" fill="rgb(18, 97, 104)" points="1425,397.5 1306,463.5 1187.5,397.5"/><polygon id="p144" class="triangle" fill="rgb(13, 96, 102)" points="1306,463.5 1425,463.5 1425,397.5"/><polygon id="p145" class="triangle" fill="rgb(20, 94, 101)" points="1425,463.5 1365.5,496.5 1306,463.5"/><polygon id="p146" class="triangle" fill="rgb(20, 98, 100)" points="1365.5,496.5 1425,496.5 1425,463.5"/><polygon id="p147" class="triangle" fill="rgb(15, 96, 104)" points="1425,496.5 1395,513 1365.5,496.5"/><polygon id="p148" class="triangle" fill="rgb(15, 99, 101)" points="1425,530 1662.5,662.5 1425,795"/><polygon id="p149" class="triangle" fill="rgb(17, 92, 101)" points="1900,596 1840.5,563 1900,530"/><polygon id="p150" class="triangle" fill="rgb(21, 96, 104)" points="1543.5,795 1484,761.5 1425,795"/><polygon id="p151" class="triangle" fill="rgb(18, 95, 102)" points="1662.5,662.5 1662.5,795 1900,795"/><polygon id="p152" class="triangle" fill="rgb(16, 101, 102)" points="1662.5,795 1543.5,728.5 1662.5,662.5"/><polygon id="p153" class="triangle" fill="rgb(13, 99, 103)" points="1543.5,728.5 1543.5,795 1662.5,795"/><polygon id="p154" class="triangle" fill="rgb(20, 97, 103)" points="1543.5,795 1484,761.5 1543.5,728.5"/><polygon id="p155" class="triangle" fill="rgb(21, 95, 98)" points="1662.5,662.5 1900,662.5 1900,795"/><polygon id="p156" class="triangle" fill="rgb(16, 100, 101)" points="1900,662.5 1781,596 1662.5,662.5"/><polygon id="p157" class="triangle" fill="rgb(12, 92, 96)" points="1781,596 1900,596 1900,662.5"/><polygon id="p158" class="triangle" fill="rgb(16, 95, 96)" points="1900,596 1840.5,563 1781,596"/><polygon id="p159" class="triangle" fill="rgb(19, 92, 98)" points="534,828 534,795 475,795"/><polygon id="p160" class="triangle" fill="rgb(16, 93, 100)" points="831,861 831,795 950,795"/><polygon id="p161" class="triangle" fill="rgb(21, 95, 105)" points="593.5,861 712,861 712.5,927.5"/><polygon id="p162" class="triangle" fill="rgb(16, 93, 105)" points="593.5,861 593.5,795 712.5,795"/><polygon id="p163" class="triangle" fill="rgb(19, 95, 97)" points="593.5,795 534,828 593.5,861"/><polygon id="p164" class="triangle" fill="rgb(14, 100, 104)" points="534,828 534,795 593.5,795"/><polygon id="p165" class="triangle" fill="rgb(16, 101, 104)" points="712.5,795 831,861 712.5,927.5"/><polygon id="p166" class="triangle" fill="rgb(14, 96, 97)" points="831,861 831,795 712.5,795"/><polygon id="p167" class="triangle" fill="rgb(13, 97, 102)" points="593.5,861 712,861 712.5,795"/><polygon id="p168" class="triangle" fill="rgb(19, 94, 102)" points="534,231.5 534,265 475,265"/><polygon id="p169" class="triangle" fill="rgb(17, 98, 101)" points="712.5,132.5 712.5,265 950,265"/><polygon id="p170" class="triangle" fill="rgb(12, 93, 105)" points="712.5,265 593.5,198.5 712.5,132.5"/><polygon id="p171" class="triangle" fill="rgb(16, 101, 98)" points="593.5,198.5 593.5,265 712.5,265"/><polygon id="p172" class="triangle" fill="rgb(14, 92, 104)" points="593.5,265 534,231.5 593.5,198.5"/><polygon id="p173" class="triangle" fill="rgb(18, 93, 97)" points="534,231.5 534,265 593.5,265"/><polygon id="p174" class="triangle" fill="rgb(14, 94, 103)" points="950,132.5 831,198.5 950,265"/><polygon id="p175" class="triangle" fill="rgb(18, 94, 102)" points="950,132.5 831,66 712.5,132.5"/><polygon id="p176" class="triangle" fill="rgb(19, 96, 103)" points="831,66 950,66 950,132.5"/><polygon id="p177" class="triangle" fill="rgb(13, 95, 97)" points="950,132.5 831,198.5 712.5,132.5"/><polygon id="p178" class="triangle" fill="rgb(19, 95, 96)" points="1306,265 1365.5,231.5 1425,265"/><polygon id="p179" class="triangle" fill="rgb(17, 98, 105)" points="1187.5,265 1068.5,198.5 950,265"/><polygon id="p180" class="triangle" fill="rgb(12, 94, 100)" points="1068.5,198.5 1187,198.5 1187.5,132.5"/><polygon id="p181" class="triangle" fill="rgb(14, 96, 101)" points="1068.5,198.5 1187,198.5 1187.5,265"/><polygon id="p182" class="triangle" fill="rgb(17, 92, 97)" points="1187,198.5 1246.5,165 1187.5,132.5"/><polygon id="p183" class="triangle" fill="rgb(12, 97, 104)" points="1306,198.5 1187,198.5 1187.5,265"/><polygon id="p184" class="triangle" fill="rgb(15, 98, 103)" points="1187,198.5 1246.5,165 1306,198.5"/><polygon id="p185" class="triangle" fill="rgb(13, 99, 97)" points="1306,198.5 1306,265 1187.5,265"/><polygon id="p186" class="triangle" fill="rgb(15, 101, 97)" points="1306,265 1365.5,231.5 1306,198.5"/><polygon id="p187" class="triangle" fill="rgb(16, 92, 97)" points="1068.5,331 1068.5,397 1187.5,397.5"/><polygon id="p188" class="triangle" fill="rgb(14, 96, 99)" points="1068.5,331 1068.5,397 950,397.5"/><polygon id="p189" class="triangle" fill="rgb(21, 97, 100)" points="1068.5,331 950,331 950,397.5"/><polygon id="p190" class="triangle" fill="rgb(14, 98, 103)" points="950,331 1009,298 1068.5,331"/><polygon id="p191" class="triangle" fill="rgb(12, 94, 103)" points="950,397.5 831,331 712.5,397.5"/></svg>